<?xml version="1.0" encoding="utf-8"?>
<!-- Generator: Adobe Illustrator 24.1.2, SVG Export Plug-In . SVG Version: 6.00 Build 0)  -->
<svg version="1.1" id="Layer_1" xmlns="http://www.w3.org/2000/svg" xmlns:xlink="http://www.w3.org/1999/xlink" x="0px" y="0px"
	 viewBox="0 0 488.5 68.2" style="enable-background:new 0 0 488.5 68.2;" xml:space="preserve">
<style type="text/css">
	.st0{fill:#FFFFFF;}
</style>
<g>
	<path class="st0" d="M66.5,36.5c-1-1-2.1-1.7-3.4-2.3c-1.3-0.6-2.7-0.8-4.2-0.8H14.5c-0.8,0-1.5-0.3-2.1-0.9
		c-0.6-0.6-0.9-1.3-0.9-2.1c0-0.9,0.3-1.6,0.9-2.1c0.6-0.6,1.3-0.8,2.1-0.8h48.9c1.1,0,2-0.4,2.7-1.1c0.7-0.7,1.1-1.7,1.1-2.7
		s-0.4-2-1.1-2.7c-0.7-0.7-1.7-1.1-2.7-1.1H14.7c-1.5,0-2.9,0.3-4.2,0.8c-1.3,0.6-2.4,1.3-3.4,2.3c-1,1-1.7,2.1-2.3,3.4
		S4,28.9,4,30.4c0,1.5,0.3,2.9,0.8,4.2c0.6,1.3,1.3,2.4,2.3,3.4c1,1,2.1,1.7,3.4,2.3c1.3,0.6,2.7,0.8,4.2,0.8h44.5
		c0.8,0,1.5,0.3,2.1,0.9c0.6,0.6,0.9,1.3,0.9,2.2c0,0.8-0.3,1.5-0.9,2C60.7,46.7,60,47,59.2,47H10.3c-1.1,0-2,0.4-2.7,1.1
		c-0.7,0.8-1.1,1.7-1.1,2.7c0,1.1,0.4,2,1.1,2.7c0.7,0.7,1.7,1.1,2.7,1.1h48.6c1.5,0,2.9-0.3,4.2-0.8c1.3-0.5,2.4-1.3,3.4-2.2
		s1.7-2.1,2.3-3.4c0.6-1.3,0.8-2.7,0.8-4.2c0-1.5-0.3-2.9-0.8-4.2C68.2,38.6,67.5,37.4,66.5,36.5z"/>
	<path class="st0" d="M130.4,32.6c1.3-0.8,2.6-1.7,3.9-2.6c1.3-0.9,2.6-1.9,4-3c0.6-0.4,1.1-0.9,1.5-1.5c0.4-0.6,0.6-1.2,0.6-2
		c0-1.1-0.4-2-1.1-2.7c-0.7-0.7-1.7-1.1-2.7-1.1c-0.9,0-1.8,0.4-2.7,1.1c-2.1,1.6-4.4,3.1-6.7,4.6c-2.3,1.5-4.8,2.8-7.3,4
		c-2.5,1.2-5.1,2.1-7.8,2.8c-2.7,0.7-5.4,1.1-8.2,1.1H85.3v-9.8c0-1.1-0.4-2-1.1-2.7c-0.7-0.7-1.7-1.1-2.7-1.1c-1,0-1.9,0.4-2.6,1.1
		c-0.7,0.8-1.1,1.7-1.1,2.7v27.3c0,1.1,0.4,2,1.1,2.7c0.7,0.7,1.7,1.1,2.7,1.1c1,0,1.9-0.4,2.6-1.1c0.7-0.7,1.1-1.7,1.1-2.7V41h18.5
		c2.8,0,5.5,0.3,8.2,1c2.7,0.7,5.3,1.6,7.8,2.8c2.5,1.2,4.9,2.5,7.3,4c2.3,1.5,4.6,3,6.8,4.7c0.9,0.7,1.8,1.1,2.7,1.1
		c1.1,0,2-0.4,2.7-1.1c0.7-0.7,1.1-1.7,1.1-2.7c0-0.7-0.2-1.4-0.6-2c-0.4-0.6-0.9-1.1-1.5-1.5c-1.4-1.1-2.7-2.1-4-3
		c-1.3-0.9-2.6-1.8-3.9-2.6c-1.3-0.8-2.6-1.6-4-2.3c-1.4-0.7-2.8-1.5-4.4-2.2c1.6-0.7,3-1.5,4.4-2.2
		C127.8,34.2,129.1,33.4,130.4,32.6z"/>
	<path class="st0" d="M180.8,45.9c-1.4,0-2.6,0.5-3.5,1.4s-1.4,2.1-1.4,3.5c0,1.4,0.5,2.6,1.4,3.5s2.1,1.4,3.5,1.4
		c1.4,0,2.6-0.5,3.5-1.4s1.4-2.1,1.4-3.5c0-1.4-0.5-2.6-1.4-3.5S182.2,45.9,180.8,45.9z"/>
	<path class="st0" d="M211.8,20.8c-0.7-0.7-1.7-1.1-2.7-1.1c-0.9,0-1.8,0.4-2.7,1.1c-3.5,3-6.4,5.4-8.7,7.1s-4.4,3-6.2,3.9
		c-1.8,0.9-3.5,1.4-5.1,1.6c-1.6,0.2-3.5,0.3-5.5,0.3c-2.1,0-4-0.1-5.6-0.3c-1.7-0.2-3.4-0.7-5.3-1.6c-1.8-0.9-3.9-2.1-6.3-3.9
		c-2.3-1.7-5.2-4.1-8.6-7.1c-0.4-0.3-0.9-0.6-1.3-0.8c-0.4-0.2-0.9-0.3-1.4-0.3c-1.1,0-2,0.4-2.7,1.1c-0.7,0.8-1.1,1.7-1.1,2.7
		c0,0.6,0.1,1.2,0.4,1.7c0.3,0.5,0.7,1,1.1,1.4c3.4,3,6.4,5.5,9.1,7.4c2.6,2,5.1,3.5,7.4,4.7c2.3,1.2,4.6,2,6.9,2.4
		c2.3,0.5,4.8,0.7,7.5,0.7c2.6,0,5-0.2,7.2-0.7s4.5-1.3,6.9-2.4c2.4-1.1,4.9-2.7,7.5-4.7c2.6-2,5.7-4.4,9-7.4
		c0.4-0.4,0.8-0.8,1.1-1.4c0.3-0.5,0.4-1.1,0.4-1.7C212.9,22.5,212.6,21.6,211.8,20.8z"/>
	<path class="st0" d="M241.7,41c-1.4,0-2.6,0.5-3.5,1.4s-1.4,2.1-1.4,3.5c0,1.4,0.5,2.6,1.4,3.5s2.1,1.4,3.5,1.4
		c1.4,0,2.6-0.5,3.5-1.4c1-1,1.4-2.1,1.4-3.5c0-1.4-0.5-2.6-1.4-3.5C244.2,41.5,243.1,41,241.7,41z"/>
	<path class="st0" d="M269.3,48.1L249.8,22c-0.9-1.2-2.1-2.2-3.5-2.9c-1.4-0.7-3-1-4.6-1c-1.7,0-3.3,0.4-4.8,1.2
		c-1.5,0.8-2.7,1.8-3.6,3l-19.5,26.2c-0.5,0.6-0.8,1.4-0.8,2.3c0,1.1,0.4,2,1.1,2.7c0.7,0.7,1.7,1.1,2.7,1.1c1.2,0,2.2-0.5,3-1.4
		l18.9-25c0.3-0.4,0.8-0.9,1.3-1.4c0.6-0.5,1.1-0.8,1.7-0.8c0.6,0,1.2,0.3,1.7,0.8c0.6,0.5,1,1,1.4,1.4l18.7,25c0.7,1,1.8,1.5,3,1.5
		c1.1,0,2-0.4,2.7-1.1c0.7-0.7,1.1-1.7,1.1-2.7c0-0.5-0.1-1-0.3-1.5C269.9,48.9,269.6,48.5,269.3,48.1z"/>
	<path class="st0" d="M341.2,30.5c0-1.5-0.3-2.9-0.8-4.2c-0.6-1.3-1.3-2.4-2.3-3.4c-1-1-2.1-1.7-3.5-2.3c-1.3-0.6-2.7-0.8-4.2-0.8
		h-48.1c-1.1,0-2,0.4-2.7,1.1c-0.8,0.8-1.1,1.7-1.1,2.7v27.3c0,1.1,0.4,2,1.1,2.7c0.7,0.7,1.7,1.1,2.7,1.1h48.1
		c1.5,0,2.9-0.3,4.2-0.8s2.5-1.3,3.5-2.3c1-1,1.8-2.1,2.3-3.4c0.6-1.3,0.8-2.7,0.8-4.2c0-1.3-0.2-2.5-0.7-3.7
		c-0.5-1.1-1.1-2.2-1.8-3.1c0.7-0.9,1.4-1.9,1.8-3.1C340.9,33,341.2,31.8,341.2,30.5z M332.8,46.1c-0.6,0.6-1.3,0.9-2.1,0.9h-44.5
		V41h44.5c0.8,0,1.5,0.3,2.1,0.8c0.6,0.6,0.9,1.3,0.9,2.1C333.7,44.8,333.4,45.5,332.8,46.1z M332.8,32.5c-0.6,0.5-1.3,0.8-2.1,0.8
		h-44.6v-5.9h44.5c0.8,0,1.5,0.3,2.1,0.9c0.6,0.6,0.9,1.3,0.9,2.1C333.7,31.3,333.4,32,332.8,32.5z"/>
	<path class="st0" d="M408.1,47h-48.1c-0.8,0-1.5-0.3-2.1-0.9c-0.6-0.6-0.9-1.3-0.9-2.1V23.5c0-1.1-0.4-2-1.2-2.7
		c-0.8-0.7-1.7-1.1-2.7-1.1c-1.1,0-2,0.4-2.7,1.1c-0.8,0.8-1.1,1.7-1.1,2.7V44c0,1.5,0.3,2.9,0.9,4.2c0.6,1.3,1.4,2.4,2.4,3.4
		c1,1,2.2,1.7,3.5,2.3s2.8,0.8,4.3,0.8h47.9c1.1,0,2-0.4,2.7-1.1c0.7-0.7,1.1-1.7,1.1-2.7c0-1.1-0.4-2-1.1-2.7
		C410.1,47.4,409.2,47,408.1,47z"/>
	<path class="st0" d="M477.3,33.3h-40c-1.1,0-2,0.4-2.7,1.1c-0.7,0.8-1.1,1.7-1.1,2.7c0,1.1,0.4,2,1.1,2.7c0.7,0.8,1.7,1.1,2.7,1.1
		h40c1.1,0,2-0.4,2.7-1.1c0.7-0.7,1.1-1.7,1.1-2.7c0-1.1-0.4-2-1.1-2.7C479.3,33.7,478.4,33.3,477.3,33.3z"/>
	<path class="st0" d="M480.7,47h-44.2c-1.9,0-3.4-0.3-4.5-1c-1.2-0.7-2.1-1.5-2.7-2.4c-0.7-1-1.1-2-1.4-3.2
		c-0.2-1.1-0.4-2.2-0.4-3.2s0.1-2,0.4-3.2c0.2-1.1,0.7-2.2,1.4-3.2c0.7-1,1.6-1.8,2.7-2.4c1.1-0.7,2.7-1,4.5-1h44.2
		c1.1,0,2-0.4,2.7-1.1c0.7-0.7,1.1-1.7,1.1-2.7s-0.4-2-1.1-2.7c-0.8-0.7-1.7-1.1-2.7-1.1h-46c-2.3,0-4.4,0.5-6.2,1.6
		c-1.8,1.1-3.4,2.4-4.7,4.1c-1.3,1.7-2.3,3.6-2.9,5.6c-0.7,2.1-1,4.1-1,6.1c0,2,0.3,4,1,6.1c0.6,2.1,1.6,4,2.8,5.7
		c1.2,1.7,2.7,3.1,4.4,4.1c1.7,1.1,3.7,1.6,5.9,1.6h46.8c1.1,0,2-0.4,2.7-1.1c0.7-0.7,1.1-1.7,1.1-2.7c0-1.1-0.4-2-1.1-2.7
		C482.7,47.4,481.8,47,480.7,47z"/>
</g>
</svg>
